<?xml version="1.0" encoding="utf-8"?>
<!-- Generator: Adobe Illustrator 18.0.0, SVG Export Plug-In . SVG Version: 6.00 Build 0)  -->
<!DOCTYPE svg PUBLIC "-//W3C//DTD SVG 1.1//EN" "http://www.w3.org/Graphics/SVG/1.1/DTD/svg11.dtd">
<svg version="1.1" id="Capa_1" xmlns="http://www.w3.org/2000/svg" xmlns:xlink="http://www.w3.org/1999/xlink" x="0px" y="0px"
	 viewBox="0 0 24 24" enable-background="new 0 0 24 24" xml:space="preserve">
<g>
	<circle id="XMLID_49_" fill="#E62937" cx="12" cy="12" r="12"/>
	<path id="XMLID_47_" fill="#FFFFFF" d="M19.1,8.4c-0.5,0.3-1.1,0.4-1.6,0.4c0.6-0.4,1-0.9,1.3-1.6c-0.5,0.3-1.2,0.6-1.9,0.7
		C16.4,7.3,15.6,7,14.8,7c-1.6,0-2.9,1.3-2.9,2.9c0,0.3,0.1,0.4,0.1,0.6c-2.4-0.1-4.6-1.3-6-3C5.7,7.9,5.5,8.4,5.5,8.9
		c0,1,0.5,1.9,1.3,2.4c-0.5,0-0.9-0.1-1.3-0.4c0,0,0,0,0,0.1c0,0.4,0.1,0.7,0.2,1.1C6,13,6.8,13.7,7.8,13.9C7.6,14,7.3,14,7.1,14
		c-0.2,0-0.3,0-0.6-0.1c0.3,1.1,1.5,1.9,2.7,2c-1,0.8-2.3,1.3-3.6,1.3c-0.3,0-0.4,0-0.7,0c1.3,0.8,2.8,1.3,4.4,1.3
		c4.6,0,7.4-3.1,8.1-6.4c0.1-0.6,0.2-1.1,0.2-1.8c0-0.1,0-0.3,0-0.4C18.2,9.4,18.7,8.9,19.1,8.4z"/>
</g>
</svg>
