<?xml version="1.0" encoding="utf-8"?>
<!-- Generator: Adobe Illustrator 18.0.0, SVG Export Plug-In . SVG Version: 6.00 Build 0)  -->
<!DOCTYPE svg PUBLIC "-//W3C//DTD SVG 1.1//EN" "http://www.w3.org/Graphics/SVG/1.1/DTD/svg11.dtd">
<svg version="1.1" id="Capa_1" xmlns="http://www.w3.org/2000/svg" xmlns:xlink="http://www.w3.org/1999/xlink" x="0px" y="0px"
	 viewBox="0 0 24 24" enable-background="new 0 0 24 24" xml:space="preserve">
<g>
	<circle id="XMLID_30_" fill="#E62535" cx="12" cy="12" r="12"/>
	<g>
		<path id="XMLID_27_" fill="#FFFFFF" d="M17.1,11.8c-0.1,0-0.2,0-0.3,0c0,0,0,0,0-0.1c0-0.1,0-0.1,0-0.2c0-0.3,0-0.7,0-1
			c0-0.1-0.1-0.2-0.1-0.2c-0.3,0-0.6,0-0.9,0c0,0.4,0,0.8,0,1.2c0,0.1,0,0.2,0,0.2c-0.5,0-0.9,0-1.4,0c0,0.1,0,0.2,0,0.2
			c0,0.2,0,0.5,0,0.7c0.2,0,0.5,0,0.7,0c0.2,0,0.4,0,0.6,0c0,0.5,0,0.9,0,1.4c0.3,0,0.7,0,1,0c0-0.5,0-0.9,0-1.4c0.5,0,0.9,0,1.4,0
			c0-0.3,0-0.5,0-0.8c0-0.1,0-0.2,0-0.2C17.8,11.8,17.5,11.8,17.1,11.8z"/>
		<path id="XMLID_26_" fill="#FFFFFF" d="M13.2,11.7c-0.9,0-1.7,0-2.6,0c-0.2,0-0.5,0-0.7,0c0,0-0.1,0.1-0.1,0.1c0,0.5,0,1,0,1.5
			c0.7,0,1.4,0,2.1,0c0,0.1,0,0.2-0.1,0.2c-0.3,1-1.3,1.4-2.4,1.3c-1.3-0.2-2.1-1.4-1.9-2.8c0-0.2,0.1-0.4,0.2-0.5
			c0.4-1,1.5-1.5,2.6-1.3c0.4,0.1,0.7,0.3,1,0.5c0.4-0.4,0.8-0.8,1.2-1.2c0,0-0.1,0-0.1-0.1c-0.9-0.8-2-1.1-3.2-0.9
			c-1.7,0.3-3,1.6-3.2,3.2c-0.1,0.7-0.1,1.4,0.2,2.1c0.7,1.7,2.3,2.7,4.2,2.5c0.9-0.1,1.7-0.4,2.3-1.1c0.9-1,1.1-2.1,1-3.4
			C13.5,11.7,13.4,11.7,13.2,11.7z"/>
	</g>
</g>
</svg>
