<?xml version="1.0" encoding="utf-8"?>
<!-- Generator: Adobe Illustrator 18.0.0, SVG Export Plug-In . SVG Version: 6.00 Build 0)  -->
<!DOCTYPE svg PUBLIC "-//W3C//DTD SVG 1.1//EN" "http://www.w3.org/Graphics/SVG/1.1/DTD/svg11.dtd">
<svg version="1.1" id="Capa_1" xmlns="http://www.w3.org/2000/svg" xmlns:xlink="http://www.w3.org/1999/xlink" x="0px" y="0px"
	 viewBox="0 0 24 24" enable-background="new 0 0 24 24" xml:space="preserve">
<g>
	<circle id="XMLID_108_" fill="#E62937" cx="12" cy="12" r="12"/>
	<g>
		<polygon id="XMLID_106_" fill="#FFFFFF" points="5.2,11.6 5.2,18.5 8.5,18.5 8.5,11 8.5,9 5.2,9 		"/>
		<circle id="XMLID_105_" fill="#FFFFFF" cx="6.8" cy="5.9" r="1.7"/>
		<path id="XMLID_104_" fill="#FFFFFF" d="M19.4,11.9c-0.2-1.8-1-2.9-3.4-2.9c-1.4,0-2.4,0.6-2.8,1.3h-0.1V9h-2.7v1.8v7.7h2.8v-4.7
			c0-1.3,0.3-2.4,1.8-2.4s1.6,1.4,1.6,2.5v4.6h2.9v-5.2l0,0C19.4,12.8,19.4,12.4,19.4,11.9z"/>
	</g>
</g>
</svg>
