<?xml version="1.0" encoding="utf-8"?>
<!-- Generator: Adobe Illustrator 18.0.0, SVG Export Plug-In . SVG Version: 6.00 Build 0)  -->
<!DOCTYPE svg PUBLIC "-//W3C//DTD SVG 1.1//EN" "http://www.w3.org/Graphics/SVG/1.1/DTD/svg11.dtd">
<svg version="1.1" id="Capa_1" xmlns="http://www.w3.org/2000/svg" xmlns:xlink="http://www.w3.org/1999/xlink" x="0px" y="0px"
	 viewBox="0 0 24 24" enable-background="new 0 0 24 24" xml:space="preserve">
<g>
	<path fill="#E8A126" d="M18.6,3.8h-13c-3,0-5.5,2.1-5.5,4.6v10.9c0,2.6,2.5,4.6,5.5,4.6h13c3,0,5.5-2.1,5.5-4.6l0,0V8.4
		C24.1,5.9,21.6,3.8,18.6,3.8z M21.5,18.6L21.5,18.6c0,1.8-1.9,3.3-4.3,3.3H7c-2.4,0-4.3-1.5-4.3-3.3V11c0-1.8,1.9-3.3,4.3-3.3h10.2
		c2.4,0,4.3,1.5,4.3,3.3C21.5,11,21.5,18.6,21.5,18.6z"/>
	
		<polyline fill="none" stroke="#E8A126" stroke-width="2" stroke-linecap="round" stroke-linejoin="round" stroke-miterlimit="10" points="
		7.4,13.4 9.7,17 16.2,10.2 	"/>
	<path fill="#E8A126" stroke="#FFFFFF" stroke-width="0.5" stroke-miterlimit="10" d="M17.1,6.6H16c-0.5,0-0.9-0.4-0.9-0.9V2.1
		c0-0.5,0.4-0.9,0.9-0.9h1.1c0.5,0,0.9,0.4,0.9,0.9v3.6C18,6.2,17.6,6.6,17.1,6.6z"/>
	<path fill="#E8A126" stroke="#FFFFFF" stroke-width="0.5" stroke-miterlimit="10" d="M12.6,6.5h-1.1c-0.5,0-0.9-0.4-0.9-0.9V2
		c0-0.5,0.4-0.9,0.9-0.9h1.1c0.5,0,0.9,0.4,0.9,0.9v3.6C13.5,6.2,13.1,6.5,12.6,6.5z"/>
	<path fill="#E8A126" stroke="#FFFFFF" stroke-width="0.5" stroke-miterlimit="10" d="M8,6.6H6.9C6.4,6.6,6,6.2,6,5.7V2.1
		c0-0.5,0.4-0.9,0.9-0.9H8c0.5,0,0.9,0.4,0.9,0.9v3.6C8.9,6.2,8.5,6.6,8,6.6z"/>
</g>
</svg>
