<?xml version="1.0" encoding="utf-8"?>
<!-- Generator: Adobe Illustrator 18.0.0, SVG Export Plug-In . SVG Version: 6.00 Build 0)  -->
<!DOCTYPE svg PUBLIC "-//W3C//DTD SVG 1.1//EN" "http://www.w3.org/Graphics/SVG/1.1/DTD/svg11.dtd">
<svg version="1.1" id="Capa_1" xmlns="http://www.w3.org/2000/svg" xmlns:xlink="http://www.w3.org/1999/xlink" x="0px" y="0px"
	 viewBox="0 0 48 48" enable-background="new 0 0 48 48" xml:space="preserve">
<g>
	<circle id="XMLID_76_" fill="#E62535" cx="24" cy="24" r="24"/>
	<path fill="#FFFFFF" d="M37.5,26.4c0.2-0.9,0.3-1.9,0.3-2.9c0-0.3,0-0.7,0-1c-0.5-6.9-6.4-12.4-13.5-12.4c-0.8,0-1.6,0.1-2.3,0.2
		c-1.2-0.8-2.6-1.2-4.2-1.2c-4.3,0-7.9,3.5-7.9,7.8c0,1.4,0.4,2.8,1.1,3.9c-0.1,0.5-0.2,1-0.2,1.5c0,0.4-0.1,0.8-0.1,1.2
		c0,7.4,6.1,13.4,13.6,13.4c0.8,0,1.7-0.1,2.5-0.2c1.1,0.6,2.4,0.9,3.7,0.9c4.3,0,7.9-3.5,7.9-7.8C38.4,28.6,38.1,27.4,37.5,26.4z
		 M31.2,29.9c-0.6,0.9-1.6,1.6-2.8,2.1c-1.2,0.5-2.6,0.7-4.2,0.7c-1.9,0-3.6-0.3-4.9-1c-0.9-0.5-1.7-1.1-2.2-2
		c-0.6-0.8-0.9-1.6-0.9-2.4c0-0.5,0.2-0.9,0.6-1.3c0.4-0.3,0.8-0.5,1.4-0.5c0.5,0,0.9,0.1,1.2,0.4c0.3,0.3,0.6,0.6,0.8,1.1
		c0.2,0.5,0.5,1,0.8,1.4c0.3,0.3,0.6,0.6,1.1,0.9c0.5,0.2,1.2,0.3,2,0.3c1.1,0,2-0.2,2.7-0.7c0.7-0.5,1-1,1-1.7
		c0-0.5-0.2-0.9-0.5-1.3c-0.4-0.3-0.9-0.6-1.4-0.8c-0.6-0.2-1.5-0.4-2.5-0.6c-1.4-0.3-2.6-0.6-3.6-1c-1-0.4-1.8-1-2.3-1.7
		c-0.2-0.2-0.3-0.5-0.5-0.7c-0.3-0.6-0.4-1.2-0.4-1.9c0-1,0.3-1.9,0.9-2.7c0.6-0.8,1.5-1.4,2.6-1.8c1.1-0.4,2.5-0.6,4-0.6
		c1.2,0,2.3,0.1,3.2,0.4c0.9,0.3,1.6,0.6,2.2,1.1c0.6,0.5,1,0.9,1.3,1.5c0.3,0.5,0.4,1,0.4,1.5c0,0.5-0.2,0.9-0.6,1.3
		c-0.4,0.4-0.8,0.6-1.4,0.6c-0.5,0-0.9-0.1-1.2-0.4c-0.3-0.2-0.5-0.6-0.8-1.1c-0.3-0.6-0.7-1.1-1.2-1.5c-0.5-0.3-1.2-0.5-2.3-0.5
		c-1,0-1.8,0.2-2.3,0.6c-0.6,0.4-0.8,0.8-0.8,1.3c0,0.3,0.1,0.6,0.3,0.8c0.2,0.2,0.5,0.4,0.8,0.6c0.4,0.2,0.7,0.3,1.1,0.4
		c0.1,0,0.1,0,0.2,0.1c0.4,0.1,0.9,0.2,1.6,0.4c1.1,0.2,2.1,0.5,3,0.8c0.9,0.3,1.7,0.6,2.3,1c0.7,0.4,1.2,1,1.5,1.6
		c0.4,0.6,0.6,1.4,0.6,2.4C32.2,28,31.9,29,31.2,29.9z"/>
</g>
</svg>
