<?xml version="1.0" encoding="utf-8"?>
<!-- Generator: Adobe Illustrator 18.0.0, SVG Export Plug-In . SVG Version: 6.00 Build 0)  -->
<!DOCTYPE svg PUBLIC "-//W3C//DTD SVG 1.1//EN" "http://www.w3.org/Graphics/SVG/1.1/DTD/svg11.dtd">
<svg version="1.1" id="Capa_1" xmlns="http://www.w3.org/2000/svg" xmlns:xlink="http://www.w3.org/1999/xlink" x="0px" y="0px"
	 viewBox="0 0 24 24" enable-background="new 0 0 24 24" xml:space="preserve">
<g>
	<circle fill="#E62B38" cx="12" cy="12" r="12"/>
	<g>
		<path fill="#FCFCFC" d="M7.9,5.2c-1.2,0-2.2,1-2.2,2.1c0,1.2,1,2.1,2.2,2.1s2.2-1,2.2-2.1S9.1,5.2,7.9,5.2z M8,7.2
			C8,7.3,8,7.3,8,7.2L7.4,7.8c-0.1,0.1-0.1,0.1-0.2,0s-0.1-0.1,0-0.2l0.5-0.5V5.8c0-0.1,0.1-0.1,0.1-0.1l0.1,0.1L8,7.2L8,7.2L8,7.2
			L8,7.2z"/>
		<path fill="#FCFCFC" d="M17.6,4.9c-0.3-0.2-0.5-0.3-0.8-0.3c-0.4,0-0.7,0.2-1,0.5s-0.4,0.7-0.6,1c-0.1,0.1-0.1,0.2-0.1,0.2
			l2.3,1.3c0.1-0.1,0.1-0.2,0.2-0.2c0.2-0.3,0.4-0.6,0.5-0.9C18.5,5.8,18.3,5.2,17.6,4.9z"/>
		<path fill="#FCFCFC" d="M15,6.7c-0.1,0.1-0.1,0.2-0.2,0.3c-0.1,0.1-0.1,0.1-0.1,0.2c-0.5,0.8-0.9,1.5-1.3,2.3
			c-1.2,2-2.3,4.1-3.6,6.1c-0.6,0.9-0.6,1.8-0.6,2.8c0,0.4,0,0.7-0.1,1.1c0.2-0.1,0.3-0.2,0.5-0.3c0.5-0.3,0.9-0.6,1.3-0.9
			c0.4-0.3,0.9-0.7,1.1-1.2c1.4-2.3,2.7-4.6,4-6.9c0.4-0.7,0.8-1.3,1.1-1.9c0.1-0.1,0.1-0.1,0.1-0.2L15,6.7z"/>
	</g>
</g>
</svg>
