<?xml version="1.0" encoding="utf-8"?>
<!-- Generator: Adobe Illustrator 18.0.0, SVG Export Plug-In . SVG Version: 6.00 Build 0)  -->
<!DOCTYPE svg PUBLIC "-//W3C//DTD SVG 1.1//EN" "http://www.w3.org/Graphics/SVG/1.1/DTD/svg11.dtd">
<svg version="1.1" id="Capa_1" xmlns="http://www.w3.org/2000/svg" xmlns:xlink="http://www.w3.org/1999/xlink" x="0px" y="0px"
	 viewBox="0 0 24 24" enable-background="new 0 0 24 24" xml:space="preserve">
<g>
	<circle id="XMLID_76_" fill="#E52234" cx="12" cy="12.1" r="12"/>
	<path fill="#FFFFFF" d="M18.8,13.3c0.1-0.5,0.2-0.9,0.2-1.4c0-0.2,0-0.3,0-0.5c-0.3-3.5-3.2-6.2-6.8-6.2c-0.4,0-0.8,0-1.2,0.1
		c-0.6-0.4-1.3-0.6-2.1-0.6C6.7,4.6,5,6.4,5,8.5c0,0.7,0.2,1.4,0.5,2c-0.1,0.2-0.1,0.5-0.1,0.7c0,0.2,0,0.4,0,0.6
		c0,3.7,3,6.7,6.8,6.7c0.4,0,0.8,0,1.2-0.1c0.6,0.3,1.2,0.5,1.9,0.5c2.2,0,3.9-1.7,3.9-3.9C19.2,14.4,19,13.8,18.8,13.3z M15.6,15
		c-0.3,0.4-0.8,0.8-1.4,1c-0.6,0.2-1.3,0.4-2.1,0.4c-1,0-1.8-0.2-2.4-0.5c-0.5-0.2-0.8-0.6-1.1-1c-0.3-0.4-0.4-0.8-0.4-1.2
		c0-0.2,0.1-0.5,0.3-0.6c0.2-0.2,0.4-0.3,0.7-0.3c0.2,0,0.4,0.1,0.6,0.2c0.2,0.1,0.3,0.3,0.4,0.6c0.1,0.3,0.3,0.5,0.4,0.7
		c0.1,0.2,0.3,0.3,0.6,0.4c0.2,0.1,0.6,0.2,1,0.2c0.6,0,1-0.1,1.4-0.4c0.3-0.2,0.5-0.5,0.5-0.8c0-0.3-0.1-0.5-0.3-0.6
		c-0.2-0.2-0.4-0.3-0.7-0.4c-0.3-0.1-0.7-0.2-1.2-0.3c-0.7-0.1-1.3-0.3-1.8-0.5c-0.5-0.2-0.9-0.5-1.2-0.8c-0.1-0.1-0.2-0.2-0.2-0.4
		c-0.1-0.3-0.2-0.6-0.2-1c0-0.5,0.2-1,0.5-1.4c0.3-0.4,0.7-0.7,1.3-0.9c0.6-0.2,1.2-0.3,2-0.3c0.6,0,1.1,0.1,1.6,0.2
		c0.4,0.1,0.8,0.3,1.1,0.6c0.3,0.2,0.5,0.5,0.7,0.7c0.1,0.3,0.2,0.5,0.2,0.8c0,0.2-0.1,0.5-0.3,0.6c-0.2,0.2-0.4,0.3-0.7,0.3
		c-0.3,0-0.4-0.1-0.6-0.2C14,10,13.9,9.8,13.7,9.6c-0.2-0.3-0.4-0.6-0.6-0.7c-0.2-0.2-0.6-0.3-1.1-0.3c-0.5,0-0.9,0.1-1.2,0.3
		c-0.3,0.2-0.4,0.4-0.4,0.6c0,0.2,0,0.3,0.1,0.4c0.1,0.1,0.2,0.2,0.4,0.3c0.2,0.1,0.4,0.2,0.5,0.2c0,0,0.1,0,0.1,0
		c0.2,0,0.5,0.1,0.8,0.2c0.5,0.1,1.1,0.2,1.5,0.4c0.5,0.1,0.8,0.3,1.2,0.5c0.3,0.2,0.6,0.5,0.8,0.8c0.2,0.3,0.3,0.7,0.3,1.2
		C16.1,14.1,15.9,14.6,15.6,15z"/>
</g>
</svg>
