<?xml version="1.0" encoding="utf-8"?>
<!-- Generator: Adobe Illustrator 18.0.0, SVG Export Plug-In . SVG Version: 6.00 Build 0)  -->
<!DOCTYPE svg PUBLIC "-//W3C//DTD SVG 1.1//EN" "http://www.w3.org/Graphics/SVG/1.1/DTD/svg11.dtd">
<svg version="1.1" id="Capa_1" xmlns="http://www.w3.org/2000/svg" xmlns:xlink="http://www.w3.org/1999/xlink" x="0px" y="0px"
	 viewBox="0 0 48 48" enable-background="new 0 0 48 48" xml:space="preserve">
<g>
	<circle id="XMLID_49_" fill="#E62535" cx="24" cy="24" r="24"/>
	<path id="XMLID_47_" fill="#FFFFFF" d="M38.2,16.7c-1,0.5-2.2,0.8-3.3,0.9c1.2-0.7,2.1-1.8,2.6-3.2c-1.1,0.7-2.4,1.1-3.7,1.4
		c-1.1-1.1-2.6-1.8-4.3-1.8c-3.2,0-5.8,2.6-5.8,5.7c0,0.5,0.1,0.9,0.1,1.3c-4.8-0.2-9.1-2.5-12-6c-0.5,0.8-0.8,1.8-0.8,2.9
		c0,2,1,3.7,2.6,4.8c-1,0-1.9-0.3-2.6-0.7c0,0,0,0,0,0.1c0,0.7,0.1,1.4,0.4,2.1c0.7,1.8,2.3,3.2,4.3,3.6c-0.5,0.1-1,0.2-1.5,0.2
		c-0.4,0-0.7,0-1.1-0.1c0.7,2.3,2.9,3.9,5.4,4c-2,1.5-4.5,2.5-7.2,2.5c-0.5,0-0.9,0-1.4-0.1c2.6,1.6,5.7,2.6,8.9,2.6
		c9.1,0,14.7-6.3,16.2-12.9c0.3-1.2,0.4-2.3,0.4-3.5c0-0.2,0-0.5,0-0.7C36.4,18.8,37.4,17.8,38.2,16.7z"/>
</g>
</svg>
