<?xml version="1.0" encoding="utf-8"?>
<!-- Generator: Adobe Illustrator 18.0.0, SVG Export Plug-In . SVG Version: 6.00 Build 0)  -->
<!DOCTYPE svg PUBLIC "-//W3C//DTD SVG 1.1//EN" "http://www.w3.org/Graphics/SVG/1.1/DTD/svg11.dtd">
<svg version="1.1" id="Capa_1" xmlns="http://www.w3.org/2000/svg" xmlns:xlink="http://www.w3.org/1999/xlink" x="0px" y="0px"
	 viewBox="0 0 48 48" enable-background="new 0 0 48 48" xml:space="preserve">
<g>
	<circle id="XMLID_108_" fill="#E62535" cx="24" cy="24" r="24"/>
	<g>
		<polygon id="XMLID_106_" fill="#FFFFFF" points="10.4,23.1 10.4,37 17,37 17,22 17,18 10.4,18 		"/>
		<circle id="XMLID_105_" fill="#FFFFFF" cx="13.7" cy="11.9" r="3.3"/>
		<path id="XMLID_104_" fill="#FFFFFF" d="M38.7,23.9c-0.4-3.6-2.1-5.8-6.9-5.8c-2.9,0-4.8,1.1-5.6,2.6h-0.1V18h-5.3v3.6V37h5.5
			v-9.4c0-2.5,0.5-4.9,3.5-4.9s3.3,2.8,3.3,5v9.2h5.7V26.5l0,0C38.8,25.6,38.8,24.7,38.7,23.9z"/>
	</g>
</g>
</svg>
