<?xml version="1.0" encoding="utf-8"?>
<!-- Generator: Adobe Illustrator 18.0.0, SVG Export Plug-In . SVG Version: 6.00 Build 0)  -->
<!DOCTYPE svg PUBLIC "-//W3C//DTD SVG 1.1//EN" "http://www.w3.org/Graphics/SVG/1.1/DTD/svg11.dtd">
<svg version="1.1" id="Capa_1" xmlns="http://www.w3.org/2000/svg" xmlns:xlink="http://www.w3.org/1999/xlink" x="0px" y="0px"
	 viewBox="0 0 24 24" enable-background="new 0 0 24 24" xml:space="preserve">
<g id="preview_4_">
	<g>
		<path fill="#E62937" d="M8.6,0.1c3.6,0,7,2.2,8.2,5.9c1.6,4.5-0.8,9.5-5.4,11.1c-0.9,0.3-1.9,0.5-2.8,0.5c-3.6,0-7-2.3-8.2-5.9
			C-1.1,7.2,1.3,2.2,5.8,0.6C6.8,0.3,7.7,0.1,8.6,0.1 M8.6,2.5C8,2.5,7.3,2.6,6.6,2.8l0,0C5,3.4,3.7,4.6,3,6.1
			c-0.7,1.5-0.8,3.2-0.3,4.9c0.9,2.5,3.3,4.3,6,4.3c0.7,0,1.4-0.1,2.1-0.3c1.6-0.5,2.9-1.7,3.6-3.2s0.8-3.2,0.3-4.9
			C13.8,4.2,11.3,2.5,8.6,2.5L8.6,2.5z"/>
	</g>
	<path fill="#E62937" d="M21.6,22.7c0.6,0.5,1.5,0.4,2-0.1l0,0c0.5-0.6,0.4-1.5-0.1-2l-5.9-5c-0.6-0.5-1.5-0.4-2,0.1l0,0
		c-0.5,0.6-0.4,1.5,0.1,2L21.6,22.7z"/>
</g>
</svg>
