<?xml version="1.0" encoding="utf-8"?>
<!-- Generator: Adobe Illustrator 18.0.0, SVG Export Plug-In . SVG Version: 6.00 Build 0)  -->
<!DOCTYPE svg PUBLIC "-//W3C//DTD SVG 1.1//EN" "http://www.w3.org/Graphics/SVG/1.1/DTD/svg11.dtd">
<svg version="1.1" id="Capa_1" xmlns="http://www.w3.org/2000/svg" xmlns:xlink="http://www.w3.org/1999/xlink" x="0px" y="0px"
	 viewBox="0 0 48 48" enable-background="new 0 0 48 48" xml:space="preserve">
<g>
	<circle fill="#E62937" cx="24" cy="24" r="24"/>
	<g>
		<path fill="#FBFBFB" d="M15.8,10.4c-2.4,0-4.4,2-4.4,4.2c0,2.4,2,4.2,4.4,4.2s4.4-2,4.4-4.2S18.2,10.4,15.8,10.4z M16,14.4
			c0,0.2,0,0.2-0.2,0.2l-1,1c-0.2,0.2-0.2,0.2-0.4,0c-0.2-0.2-0.2-0.2,0-0.4l1-1v-2.6c0-0.2,0.2-0.2,0.2-0.2l0.2,0.2L16,14.4
			L16,14.4L16,14.4L16,14.4z"/>
		<path fill="#FBFBFB" d="M35.2,9.8c-0.6-0.4-1-0.6-1.6-0.6c-0.8,0-1.4,0.4-2,1s-0.8,1.4-1.2,2c-0.2,0.2-0.2,0.4-0.2,0.4l4.6,2.6
			c0.2-0.2,0.2-0.4,0.4-0.4c0.4-0.6,0.8-1.2,1-1.8C37,11.6,36.6,10.4,35.2,9.8z"/>
		<path fill="#FBFBFB" d="M30,13.4c-0.2,0.2-0.2,0.4-0.4,0.6c-0.2,0.2-0.2,0.2-0.2,0.4c-1,1.6-1.8,3-2.6,4.6
			c-2.4,4-4.6,8.2-7.2,12.2c-1.2,1.8-1.2,3.6-1.2,5.6c0,0.8,0,1.4-0.2,2.2c0.4-0.2,0.6-0.4,1-0.6c1-0.6,1.8-1.2,2.6-1.8
			c0.8-0.6,1.8-1.4,2.2-2.4c2.8-4.6,5.4-9.2,8-13.8c0.8-1.4,1.6-2.6,2.2-3.8c0.2-0.2,0.2-0.2,0.2-0.4L30,13.4z"/>
	</g>
</g>
</svg>
