<?xml version="1.0" encoding="UTF-8" standalone="no"?>
<!DOCTYPE svg PUBLIC "-//W3C//DTD SVG 1.1//EN" "http://www.w3.org/Graphics/SVG/1.1/DTD/svg11.dtd">
<svg version="1.1" xmlns="http://www.w3.org/2000/svg" xmlns:xlink="http://www.w3.org/1999/xlink" preserveAspectRatio="xMidYMid meet" viewBox="0 0 640 640" width="640" height="640"><defs><path d="M507.89 101.75L513.75 102.26L519.55 102.97L525.27 103.87L530.92 104.96L536.49 106.24L541.97 107.69L547.37 109.32L552.67 111.13L557.87 113.1L562.96 115.23L567.94 117.52L572.81 119.97L577.56 122.57L582.19 125.31L586.68 128.2L591.04 131.22L595.26 134.38L599.33 137.67L603.26 141.08L607.03 144.61L610.64 148.26L614.08 152.02L617.35 155.89L620.45 159.86L623.37 163.94L626.11 168.1L628.65 172.36L631 176.71L633.15 181.14L635.09 185.64L636.83 190.22L638.35 194.87L639.65 199.59L640.72 204.37L641.56 209.2L642.17 214.09L642.54 219.02L642.67 224L642.67 514.67L642.54 519.65L642.17 524.58L641.56 529.47L640.72 534.3L639.65 539.08L638.35 543.79L636.83 548.44L635.09 553.02L633.15 557.53L631 561.96L628.65 566.3L626.11 570.56L623.37 574.73L620.45 578.8L617.35 582.78L614.08 586.65L610.64 590.41L607.03 594.06L603.26 597.59L599.33 601L595.26 604.29L591.04 607.44L586.68 610.47L582.19 613.35L577.56 616.1L572.81 618.7L567.94 621.14L562.96 623.44L557.87 625.57L552.67 627.54L547.37 629.34L541.97 630.98L536.49 632.43L530.92 633.71L525.27 634.8L519.55 635.7L513.75 636.41L507.89 636.92L501.97 637.23L496 637.33L149.33 637.33L143.36 637.23L137.44 636.94L131.58 636.45L125.79 635.77L120.06 634.91L114.41 633.86L108.84 632.63L103.36 631.23L97.97 629.66L92.67 627.92L87.47 626.01L82.37 623.94L77.39 621.71L72.52 619.33L67.77 616.8L63.15 614.12L58.65 611.3L54.29 608.34L50.07 605.23L46 602L42.08 598.64L38.31 595.14L34.7 591.53L31.25 587.8L27.98 583.95L24.88 579.99L21.96 575.92L19.23 571.74L16.68 567.46L14.33 563.08L12.18 558.61L10.24 554.05L8.51 549.4L6.99 544.66L5.69 539.84L4.61 534.95L3.77 529.98L3.16 524.94L2.79 519.84L2.67 514.67L2.67 224L2.79 219.02L3.16 214.09L3.77 209.2L4.61 204.37L5.69 199.59L6.99 194.87L8.51 190.22L10.24 185.64L12.18 181.14L14.33 176.71L16.68 172.36L19.23 168.1L21.96 163.94L24.88 159.86L27.98 155.89L31.25 152.02L34.7 148.26L38.31 144.61L42.08 141.08L46 137.67L50.07 134.38L54.29 131.22L58.65 128.2L63.15 125.31L67.77 122.57L72.52 119.97L77.39 117.52L82.37 115.23L87.47 113.1L92.67 111.13L97.97 109.32L103.36 107.69L108.84 106.24L114.41 104.96L120.06 103.87L125.79 102.97L131.58 102.26L137.44 101.75L143.36 101.44L149.33 101.33L496 101.33L501.97 101.44L507.89 101.75ZM181.89 205.41L177.17 205.63L172.51 205.99L167.9 206.5L163.36 207.15L158.89 207.93L154.49 208.84L150.17 209.88L145.92 211.04L141.75 212.33L137.67 213.74L133.67 215.27L129.77 216.91L125.97 218.66L122.26 220.52L118.66 222.49L115.16 224.55L111.77 226.72L108.49 228.98L105.33 231.33L102.29 233.78L99.38 236.31L96.59 238.92L93.93 241.62L91.41 244.4L89.02 247.25L86.77 250.17L84.67 253.16L82.72 256.21L80.92 259.33L79.27 262.51L77.78 265.75L76.45 269.04L75.29 272.38L74.3 275.77L73.48 279.21L72.84 282.68L72.38 286.2L72.09 289.75L72 293.33L72 496L72.09 499.58L72.38 503.14L72.84 506.65L73.48 510.13L74.3 513.56L75.29 516.95L76.45 520.29L77.78 523.58L79.27 526.82L80.92 530L82.72 533.12L84.67 536.18L86.77 539.17L89.02 542.09L91.41 544.94L93.93 547.71L96.59 550.41L99.38 553.02L102.29 555.56L105.33 558L108.49 560.35L111.77 562.62L115.16 564.78L118.66 566.85L122.26 568.81L125.97 570.67L129.77 572.42L133.67 574.06L137.67 575.59L141.75 577L145.92 578.29L150.17 579.46L154.49 580.5L158.89 581.41L163.36 582.19L167.9 582.83L172.51 583.34L177.17 583.7L181.89 583.93L186.67 584L458.67 584L463.44 583.93L468.16 583.7L472.83 583.34L477.43 582.83L481.97 582.19L486.44 581.41L490.84 580.5L495.17 579.46L499.42 578.29L503.58 577L507.67 575.59L511.66 574.06L515.56 572.42L519.37 570.67L523.07 568.81L526.68 566.85L530.18 564.78L533.56 562.62L536.84 560.35L540 558L543.04 555.56L545.96 553.02L548.74 550.41L551.4 547.71L553.93 544.94L556.31 542.09L558.56 539.17L560.66 536.18L562.61 533.12L564.42 530L566.06 526.82L567.55 523.58L568.88 520.29L570.04 516.95L571.03 513.56L571.85 510.13L572.49 506.65L572.96 503.14L573.24 499.58L573.33 496L573.33 293.33L573.24 289.75L572.96 286.2L572.49 282.68L571.85 279.21L571.03 275.77L570.04 272.38L568.88 269.04L567.55 265.75L566.06 262.51L564.42 259.33L562.61 256.21L560.66 253.16L558.56 250.17L556.31 247.25L553.93 244.4L551.4 241.62L548.74 238.92L545.96 236.31L543.04 233.78L540 231.33L536.84 228.98L533.56 226.72L530.18 224.55L526.68 222.49L523.07 220.52L519.37 218.66L515.56 216.91L511.66 215.27L507.67 213.74L503.58 212.33L499.42 211.04L495.17 209.88L490.84 208.84L486.44 207.93L481.97 207.15L477.43 206.5L472.83 205.99L468.16 205.63L463.44 205.41L458.67 205.33L186.67 205.33L181.89 205.41Z" id="b5ZK7Ku4A"></path><path d="M426.67 176C413.33 176 402.67 165.33 402.67 152C402.67 142.4 402.67 65.6 402.67 56C402.67 42.67 413.33 32 426.67 32C429.6 32 453.07 32 456 32C469.33 32 480 42.67 480 56C480 65.6 480 142.4 480 152C480 165.33 469.33 176 456 176C450.13 176 429.6 176 426.67 176Z" id="bCxaqqU6j"></path><path d="M306.67 173.33C293.33 173.33 282.67 162.67 282.67 149.33C282.67 139.73 282.67 62.93 282.67 53.33C282.67 40 293.33 29.33 306.67 29.33C309.6 29.33 333.07 29.33 336 29.33C349.33 29.33 360 40 360 53.33C360 62.93 360 139.73 360 149.33C360 165.33 349.33 173.33 336 173.33C330.13 173.33 309.6 173.33 306.67 173.33Z" id="d2pjjwVxHy"></path><path d="M184 176C170.67 176 160 165.33 160 152C160 142.4 160 65.6 160 56C160 42.67 170.67 32 184 32C186.93 32 210.4 32 213.33 32C226.67 32 237.33 42.67 237.33 56C237.33 65.6 237.33 142.4 237.33 152C237.33 165.33 226.67 176 213.33 176C207.47 176 186.93 176 184 176Z" id="d7WZcJeewo"></path><path d="M293.6 468.07C294.56 469.37 296.47 469.44 297.53 468.23C330.33 430.55 426.16 320.5 458.84 282.98C460.35 281.24 462.97 281 464.78 282.43C467.82 284.85 471.94 288.13 474.54 290.2C477.52 292.56 477.92 296.93 475.42 299.8C439.43 341.21 334.99 461.37 298.74 503.08C297.06 505.01 294.02 504.9 292.5 502.84C274.08 478.09 223.84 410.55 205.94 386.48C202.9 382.4 203.76 376.63 207.86 373.62C209.88 372.13 209.1 372.7 211.27 371.1C214.97 368.37 220.18 369.15 222.92 372.85C237.43 392.4 278.47 447.69 293.6 468.07Z" id="e15FLgVGYy"></path><path d="" id="acg2HZ791"></path><path d="" id="dqKyZfihG"></path><path d="" id="g2uMAveMmR"></path></defs><g><g><g><use xlink:href="#b5ZK7Ku4A" opacity="1" fill="#e8a126" fill-opacity="1"></use><g><use xlink:href="#b5ZK7Ku4A" opacity="1" fill-opacity="0" stroke="#000000" stroke-width="1" stroke-opacity="0"></use></g></g><g><use xlink:href="#bCxaqqU6j" opacity="1" fill="#e8a126" fill-opacity="1"></use><g><use xlink:href="#bCxaqqU6j" opacity="1" fill-opacity="0" stroke="#ffffff" stroke-width="0.5" stroke-opacity="1"></use></g></g><g><use xlink:href="#d2pjjwVxHy" opacity="1" fill="#e8a126" fill-opacity="1"></use><g><use xlink:href="#d2pjjwVxHy" opacity="1" fill-opacity="0" stroke="#ffffff" stroke-width="0.5" stroke-opacity="1"></use></g></g><g><use xlink:href="#d7WZcJeewo" opacity="1" fill="#e8a126" fill-opacity="1"></use><g><use xlink:href="#d7WZcJeewo" opacity="1" fill-opacity="0" stroke="#ffffff" stroke-width="0.5" stroke-opacity="1"></use></g></g><g><use xlink:href="#e15FLgVGYy" opacity="1" fill="#e8a126" fill-opacity="1"></use><g><use xlink:href="#e15FLgVGYy" opacity="1" fill-opacity="0" stroke="#e8a126" stroke-width="3" stroke-opacity="1"></use></g></g><g><g><use xlink:href="#acg2HZ791" opacity="1" fill-opacity="0" stroke="#e8a126" stroke-width="2" stroke-opacity="1"></use></g></g><g><g><use xlink:href="#dqKyZfihG" opacity="1" fill-opacity="0" stroke="#e8a126" stroke-width="2" stroke-opacity="1"></use></g></g><g><g><use xlink:href="#g2uMAveMmR" opacity="1" fill-opacity="0" stroke="#e8a126" stroke-width="2" stroke-opacity="1"></use></g></g></g></g></svg>