<?xml version="1.0" encoding="utf-8"?>
<!-- Generator: Adobe Illustrator 18.0.0, SVG Export Plug-In . SVG Version: 6.00 Build 0)  -->
<!DOCTYPE svg PUBLIC "-//W3C//DTD SVG 1.1//EN" "http://www.w3.org/Graphics/SVG/1.1/DTD/svg11.dtd">
<svg version="1.1" id="Capa_1" xmlns="http://www.w3.org/2000/svg" xmlns:xlink="http://www.w3.org/1999/xlink" x="0px" y="0px"
	 viewBox="0 0 48 48" enable-background="new 0 0 48 48" xml:space="preserve">
<g>
	<path fill="#E8A126" d="M37,6.8H11C5,6.8,0,11,0,16v21.8C0,43,5,47,11,47h26c6,0,11-4.2,11-9.2l0,0V16C48,11,43,6.8,37,6.8z
		 M42.8,36.4L42.8,36.4c0,3.6-3.8,6.6-8.6,6.6H13.8c-4.8,0-8.6-3-8.6-6.6V21.2c0-3.6,3.8-6.6,8.6-6.6h20.4c4.8,0,8.6,3,8.6,6.6V36.4
		z"/>
	
		<polyline fill="none" stroke="#E8A126" stroke-width="2" stroke-linecap="round" stroke-linejoin="round" stroke-miterlimit="10" points="
		14.6,26 19.2,33.2 32.2,19.6 	"/>
	<path fill="#E8A126" stroke="#FFFFFF" stroke-width="0.5" stroke-miterlimit="10" d="M34,12.4h-2.2c-1,0-1.8-0.8-1.8-1.8V3.4
		c0-1,0.8-1.8,1.8-1.8H34c1,0,1.8,0.8,1.8,1.8v7.2C35.8,11.6,35,12.4,34,12.4z"/>
	<path fill="#E8A126" stroke="#FFFFFF" stroke-width="0.5" stroke-miterlimit="10" d="M25,12.2h-2.2c-1,0-1.8-0.8-1.8-1.8V3.2
		c0-1,0.8-1.8,1.8-1.8H25c1,0,1.8,0.8,1.8,1.8v7.2C26.8,11.6,26,12.2,25,12.2z"/>
	<path fill="#E8A126" stroke="#FFFFFF" stroke-width="0.5" stroke-miterlimit="10" d="M15.8,12.4h-2.2c-1,0-1.8-0.8-1.8-1.8V3.4
		c0-1,0.8-1.8,1.8-1.8h2.2c1,0,1.8,0.8,1.8,1.8v7.2C17.6,11.6,16.8,12.4,15.8,12.4z"/>
</g>
</svg>
