<?xml version="1.0" encoding="utf-8"?>
<!-- Generator: Adobe Illustrator 18.0.0, SVG Export Plug-In . SVG Version: 6.00 Build 0)  -->
<!DOCTYPE svg PUBLIC "-//W3C//DTD SVG 1.1//EN" "http://www.w3.org/Graphics/SVG/1.1/DTD/svg11.dtd">
<svg version="1.1" id="Capa_1" xmlns="http://www.w3.org/2000/svg" xmlns:xlink="http://www.w3.org/1999/xlink" x="0px" y="0px"
	 viewBox="0 0 48 48" enable-background="new 0 0 48 48" xml:space="preserve">
<g>
	<circle id="XMLID_30_" fill="#E62535" cx="24" cy="24" r="24"/>
	<g>
		<path id="XMLID_27_" fill="#FFFFFF" d="M34.2,23.5c-0.2,0-0.3,0-0.5,0c0,0,0-0.1,0-0.1c0-0.1,0-0.2,0-0.4c0-0.7,0-1.3,0-2
			c0-0.1-0.1-0.3-0.2-0.3c-0.6,0-1.2,0-1.8,0c0,0.8,0,1.5,0,2.3c0,0.2,0,0.3,0,0.5c-0.9,0-1.8,0-2.8,0c0,0.2,0,0.3,0,0.5
			c0,0.5,0,1,0.1,1.5c0.5,0,1,0,1.5,0.1c0.4,0,0.8,0,1.3,0c0,0.9,0,1.8,0,2.7c0.7,0,1.3,0,2,0c0-0.9,0-1.8,0-2.7c0.9,0,1.8,0,2.7,0
			c0-0.5,0-1,0-1.5c0-0.2,0-0.3,0-0.5C35.7,23.5,34.9,23.5,34.2,23.5z"/>
		<path id="XMLID_26_" fill="#FFFFFF" d="M26.4,23.3c-1.7,0-3.4,0-5.2,0c-0.5,0-1,0-1.5,0c-0.1,0-0.3,0.1-0.3,0.2c0,1,0,2,0,3
			c1.4,0,2.8,0,4.2,0c-0.1,0.2-0.1,0.4-0.1,0.5c-0.6,1.9-2.6,2.9-4.7,2.5c-2.6-0.4-4.3-2.9-3.8-5.5c0.1-0.4,0.2-0.7,0.3-1.1
			c0.9-1.9,3-3.1,5.2-2.6c0.8,0.2,1.4,0.5,2,1c0.8-0.8,1.5-1.5,2.3-2.3c-0.1,0-0.1-0.1-0.2-0.1c-1.9-1.6-4-2.1-6.4-1.8
			c-3.4,0.6-5.9,3.3-6.5,6.4c-0.2,1.4-0.1,2.8,0.4,4.2c1.3,3.4,4.7,5.4,8.3,5c1.8-0.2,3.3-0.8,4.6-2.1c1.8-1.9,2.3-4.3,2-6.8
			C26.9,23.4,26.8,23.3,26.4,23.3z"/>
	</g>
</g>
</svg>
