<?xml version="1.0" encoding="utf-8"?>
<!-- Generator: Adobe Illustrator 18.0.0, SVG Export Plug-In . SVG Version: 6.00 Build 0)  -->
<!DOCTYPE svg PUBLIC "-//W3C//DTD SVG 1.1//EN" "http://www.w3.org/Graphics/SVG/1.1/DTD/svg11.dtd">
<svg version="1.1" id="Capa_1" xmlns="http://www.w3.org/2000/svg" xmlns:xlink="http://www.w3.org/1999/xlink" x="0px" y="0px"
	 viewBox="0 0 313.3 102.4" enable-background="new 0 0 313.3 102.4" xml:space="preserve">
<g>
	<path fill="#1D1F1F" stroke="#BE7D1C" stroke-miterlimit="10" d="M76.6,84.6"/>
	<path fill="#1D1F1F" stroke="#BE7D1C" stroke-miterlimit="10" d="M95.7,79.5"/>
	<path fill="#1D1F1F" stroke="#050606" d="M104.6,45.8H131c1,0,1.8,0.7,1.8,1.6V51c0,0.9,0,2.2-1.9,2.2h-17.6c-1,0-1.9,0.5-1.9,1.4
		v4.9c0,0.9,0.8,1.6,1.8,1.6l13.5,0c1,0,1.8,0.7,1.8,1.6v3.6c0,0.9-0.8,1.7-1.9,1.6l-13.5,0c-1,0-1.9,0.7-1.9,1.6v3.7
		c0,0.9,0.8,1.6,1.8,1.6H131c1,0,1.9,0.7,1.8,1.7l0,4.3c0,0.9-0.8,1.6-1.8,1.6h-26.4c-1,0-1.8-0.7-1.8-1.6V47.5
		C102.7,46.6,103.6,45.8,104.6,45.8z"/>
	<path fill="#1D1F1F" stroke="#050606" d="M280.4,81.8c-2.4-0.4-3.5-0.5-5.1-1.4c-1.7-0.9-2.2-4.6,0-5.3c2.1-0.7,3.9,1.5,6.1,2
		c2.2,0.5,4.4,0.8,6.6,0.8c2.8,0,3.7,0,5.3-0.7c1.2-0.5,2.4-1.3,2.7-2.3c0.4-1.3,0.5-2.9-1-4.4c-0.8-0.8-1.4-1.3-2.8-1.9
		c-1.4-0.6-3.4-1.4-5.9-2.2c-3-1-5.4-2.3-7.1-3.1c-1.8-0.8-2.8-1.8-3.8-3.1c-1-1.2-1.6-2.7-1.6-4.6c0-1.8,0.7-3.5,2-4.9
		c1.3-1.4,3.2-2.5,5.6-3.2c2.4-0.8,5.1-1.1,8.2-1.1c2.3,0,4.5,0.2,6.6,0.5c2.1,0.4,3.9,0.6,5,1.1c2.7,1.3,1.6,4.5-1.2,4.6
		c-2.9,0.1-6.8-1.8-10.8-1.8c-2.9,0-4.7,0.5-6.3,1.4c-1.1,0.7-1.9,1.9-1.8,3.2c0,1.1,0.4,2,1.2,2.7c0.8,0.7,2.6,1.4,4,2
		c1.4,0.6,3.3,1,6.1,1.9c4.3,1.4,7,2.9,9,4.5c2,1.6,2.6,4,2.6,6.4c0,2.9-1.5,5.3-4.4,7c-3,1.7-7,2.5-12.1,2.5
		C285.1,82.4,282.8,82.2,280.4,81.8z"/>
	<g>
		<path fill="#1D1F1F" d="M314.2,47.2c0,0.4-0.1,0.8-0.2,1.2c-0.2,0.4-0.4,0.7-0.6,1c-0.3,0.3-0.6,0.5-1,0.6
			c-0.4,0.2-0.8,0.2-1.2,0.2c-0.4,0-0.8-0.1-1.2-0.2c-0.4-0.2-0.7-0.4-0.9-0.6c-0.3-0.3-0.5-0.6-0.6-0.9c-0.1-0.4-0.2-0.8-0.2-1.2
			c0-0.4,0.1-0.8,0.2-1.2c0.2-0.4,0.4-0.7,0.6-0.9c0.3-0.3,0.6-0.5,1-0.6c0.4-0.2,0.8-0.2,1.2-0.2c0.4,0,0.8,0.1,1.2,0.2
			c0.4,0.1,0.7,0.4,0.9,0.6c0.3,0.3,0.5,0.6,0.6,0.9C314.1,46.3,314.2,46.7,314.2,47.2z M313.5,47.2c0-0.4-0.1-0.7-0.2-1
			c-0.1-0.3-0.3-0.6-0.5-0.8c-0.2-0.2-0.4-0.4-0.7-0.5c-0.3-0.1-0.6-0.2-0.9-0.2c-0.4,0-0.7,0.1-1,0.2c-0.3,0.1-0.5,0.3-0.7,0.5
			s-0.4,0.5-0.5,0.7c-0.1,0.3-0.2,0.6-0.2,0.9c0,0.4,0.1,0.7,0.2,1c0.1,0.3,0.3,0.6,0.5,0.8c0.2,0.2,0.4,0.4,0.7,0.5
			c0.3,0.1,0.6,0.2,0.9,0.2c0.4,0,0.7-0.1,1-0.2c0.3-0.1,0.5-0.3,0.7-0.5c0.2-0.2,0.4-0.5,0.5-0.7C313.4,47.8,313.5,47.5,313.5,47.2
			z M312.6,48.6C312.6,48.6,312.6,48.6,312.6,48.6C312.5,48.7,312.5,48.7,312.6,48.6c-0.1,0.1-0.1,0.1-0.2,0.1c-0.1,0-0.1,0-0.2,0
			c-0.1,0-0.2,0-0.2,0c-0.1,0-0.1,0-0.1,0c0,0-0.1,0-0.1-0.1c0,0,0-0.1,0-0.1l-0.2-0.5c-0.1-0.2-0.1-0.3-0.2-0.4
			c-0.1-0.1-0.2-0.1-0.4-0.1h-0.2v1.1c0,0.1,0,0.1-0.1,0.1c0,0-0.1,0-0.3,0s-0.3,0-0.3,0c-0.1,0-0.1-0.1-0.1-0.1v-2.8
			c0-0.1,0-0.2,0.1-0.3c0.1-0.1,0.1-0.1,0.3-0.1h0.9c0.2,0,0.4,0,0.5,0.1c0.2,0,0.3,0.1,0.4,0.2c0.1,0.1,0.2,0.2,0.2,0.3
			c0.1,0.1,0.1,0.3,0.1,0.4c0,0.2-0.1,0.4-0.2,0.6c-0.1,0.1-0.3,0.2-0.5,0.3c0.1,0,0.2,0.1,0.3,0.2c0.1,0.1,0.2,0.2,0.3,0.4l0.2,0.5
			C312.5,48.5,312.6,48.6,312.6,48.6z M311.6,46.5c0-0.1,0-0.1,0-0.2c0-0.1,0-0.1-0.1-0.1c0,0-0.1-0.1-0.2-0.1c-0.1,0-0.2,0-0.3,0
			h-0.4v0.9h0.3c0.2,0,0.4,0,0.4-0.1C311.6,46.7,311.6,46.6,311.6,46.5z"/>
	</g>
	<path fill="#1D1F1F" stroke="#050606" stroke-miterlimit="10" d="M139.2,46.3h5.7c1.1,0,2.1,0.7,2.1,1.6v25.4
		c0,0.9,0.9,1.6,2.1,1.6h15.7c1.1,0,2.1,0.7,2.1,1.6v4.1c0,0.9-0.9,1.6-2.1,1.6h-25.6c-1.1,0-2.1-0.7-2.1-1.6V47.9
		C137.1,47.1,138.1,46.3,139.2,46.3z"/>
	<path fill="#1D1F1F" stroke="#050606" stroke-miterlimit="10" d="M269.7,70c0,0.4,0,0.8-0.1,1.2c-0.7,6.3-7.2,11.3-15,11.3
		c-7.8,0-14.3-5-15-11.3c0-0.4-0.1-0.8-0.1-1.2V48c0-0.9,0.8-1.6,1.8-1.6h5c1,0,1.8,0.7,1.8,1.6v23.2c0.8,5.1,5.5,4.9,6.4,4.9
		c0.9,0,5.6,0.2,6.4-4.9V48c0-0.9,0.8-1.6,1.8-1.6h5c1,0,1.8,0.7,1.8,1.6C269.8,53,269.7,67.9,269.7,70z"/>
	<path fill="#1D1F1F" stroke="#050606" stroke-miterlimit="10" d="M201.5,70c0,0.4,0,0.8-0.1,1.2c-0.7,6.3-7.2,11.3-15,11.3
		c-7.8,0-14.3-5-15-11.3c0-0.4-0.1-0.8-0.1-1.2V48c0-0.9,0.8-1.6,1.8-1.6h5c1,0,1.8,0.7,1.8,1.6v23.2c0.8,5.1,5.5,4.9,6.4,4.9
		c0.9,0,5.6,0.2,6.4-4.9V48c0-0.9,0.8-1.6,1.8-1.6h5c1,0,1.8,0.7,1.8,1.6C201.5,53,201.5,67.9,201.5,70z"/>
	<path fill="none" stroke="#BE7D1C" stroke-miterlimit="10" d="M83.2,67.4"/>
	<path fill="none" stroke="#88CDD2" stroke-width="0.25" d="M209.3,40.3"/>
	<path fill="#1D1F1F" stroke="#050606" d="M234.5,47.8l-3.8-1.9c-0.7-0.3-1.6-0.1-2,0.5l-8.3,11.2l-8.3-11.2c-0.5-0.6-1.3-0.8-2-0.5
		l-3.8,1.9c-0.9,0.4-1.2,1.6-0.6,2.4L215.8,64l-10.1,13.7c-0.6,0.8-0.3,2,0.6,2.4l3.8,1.9c0.7,0.3,1.6,0.1,2-0.5l8.3-11.2l8.3,11.2
		c0.5,0.6,1.3,0.8,2,0.5l3.8-1.9c0.9-0.4,1.2-1.6,0.6-2.4L225,64l10.1-13.7C235.7,49.5,235.4,48.3,234.5,47.8z"/>
	<g>
		<path fill="#1D1F1F" d="M79.9,45.9H68.6v6.7v23.3v5.7v0.7h13.1c12.2,0,17-7.8,17-18.1S92.2,45.9,79.9,45.9z M77.5,74.7V53.2
			c0,0,2.4,0,3.2,0c3.8,0.1,10.5,1,10.5,11.1c0,9.7-7.1,10.4-10.8,10.5C79.6,74.8,77.5,74.7,77.5,74.7z"/>
	</g>
</g>
<g>
	<path fill="#C61A1B" d="M51.8,38c1.4-1.1,5.7-16.6,12.6-15.5c2.2,0.1-3.1-9.3-11.1-12.4c-4.6-1.8-6.9-1-8.3-0.3
		c-0.5,0.3-0.9,0.6-1.2,1.1c-3.4,5.6-8.7,13.2-11.9,13.9C40.3,26.3,47.4,31.2,51.8,38z"/>
	<path fill="#C61A1B" d="M66.4,23.3c5,1.5,6.6-4.5,6.6-8.4c0-4.3-3.7-5.3-8.3-8.6c-4-2.9-6.5-5.3-10.5-4.7c-2.6,0.5-6.2,4.6-8.7,7.5
		C51.1,5,66.1,15.3,66.4,23.3z"/>
	<circle fill="#FFFFFF" cx="55.5" cy="17" r="1.8"/>
	<path fill="#1D1F1F" stroke="#1D1F1F" d="M37.4,42.3c2.9,0,5.7,0.4,8.4,1.2c-14.5,7.2-24.4,22.2-24.4,39.5c0,5.4,1,10.6,2.8,15.4
		C14.5,93.5,7.8,83.5,7.8,71.9C7.8,55.5,21,42.3,37.4,42.3z"/>
	<path fill="#C61A1B" d="M27.4,26.5c11,0,20.4,6.4,24.8,15.8c-4.6-2.5-9.9-3.9-15.5-3.9c-17.1,0-31.1,13.1-32.5,29.9
		C1.5,64.1,0,59.2,0,53.9C0,38.8,12.3,26.5,27.4,26.5z"/>
	<path fill="#1D1F1F" stroke="#1D1F1F" d="M40.8,102.4c-8.1-2-14.2-9.4-14.2-18.3c0-7.8,4.8-14.6,11.5-17.4
		c-3.5,4.3-5.7,10.1-5.7,16.4C32.4,91,35.7,98,40.8,102.4z"/>
	<path fill="#1D1F1F" stroke="#1D1F1F" d="M52.1,100.6c-5.7,0.1-10.9-3.7-12.4-9.4c-1.4-5.1,0.6-10.3,4.5-13.3
		c-1.5,3.4-1.9,7.6-0.8,11.7C44.6,94.7,48,98.7,52.1,100.6z"/>
	<path fill="#1D1F1F" stroke="#1D1F1F" d="M55.2,93.7c-2.1,0-4-1.4-4.6-3.5c-0.5-1.9,0.2-3.8,1.7-4.9c-0.6,1.3-0.7,2.8-0.3,4.3
		C52.4,91.5,53.7,92.9,55.2,93.7z"/>
	<path fill="#BC940A" d="M60.6,24.8c-0.2-0.1,1.3-1.2,2.2-1.4c0.9-0.2,2.4-0.1,2.4,0c0,0.2,0.7,2.3,0.8,3c0.1,0.4-0.6,1.4-0.7,1.1
		C64.8,26.5,61,24.9,60.6,24.8z"/>
</g>
</svg>
