<?xml version="1.0" encoding="UTF-8" standalone="no"?>
<!DOCTYPE svg PUBLIC "-//W3C//DTD SVG 1.1//EN" "http://www.w3.org/Graphics/SVG/1.1/DTD/svg11.dtd">
<svg version="1.1" xmlns="http://www.w3.org/2000/svg" xmlns:xlink="http://www.w3.org/1999/xlink" preserveAspectRatio="xMidYMid meet" viewBox="0 0 640 640" width="640" height="640"><defs><path d="M3.59 640C46.26 640 259.59 640 643.59 640L643.59 0C216.92 192 3.59 405.33 3.59 640Z" id="abnC3CDhZ"></path><path d="M399.85 515.48C394.33 515.48 389.85 511.01 389.85 505.48C389.85 458.95 389.85 329.35 389.85 282.82C389.85 277.29 394.33 272.82 399.85 272.82C401.91 272.82 398.09 272.82 400.15 272.82C405.67 272.82 410.15 277.29 410.15 282.82C410.15 329.35 410.15 458.95 410.15 505.48C410.15 511.01 405.67 515.48 400.15 515.48C398.09 515.48 401.91 515.48 399.85 515.48Z" id="d1siCRv56F"></path><path d="M278.67 394C278.67 388.48 283.14 384 288.67 384C335.2 384 464.8 384 511.33 384C516.86 384 521.33 388.48 521.33 394C521.33 396.06 521.33 392.24 521.33 394.3C521.33 399.82 516.86 404.3 511.33 404.3C464.8 404.3 335.2 404.3 288.67 404.3C283.14 404.3 278.67 399.82 278.67 394.3C278.67 392.24 278.67 396.06 278.67 394Z" id="d4nKWTcO3t"></path></defs><g><g><g><use xlink:href="#abnC3CDhZ" opacity="1" fill="#e94f20" fill-opacity="1"></use><g><use xlink:href="#abnC3CDhZ" opacity="1" fill-opacity="0" stroke="#000000" stroke-width="1" stroke-opacity="0"></use></g></g><g><use xlink:href="#d1siCRv56F" opacity="1" fill="#ffffff" fill-opacity="1"></use></g><g><use xlink:href="#d4nKWTcO3t" opacity="1" fill="#fbfbfb" fill-opacity="1"></use></g></g></g></svg>