<?xml version="1.0" encoding="utf-8"?>
<!-- Generator: Adobe Illustrator 18.0.0, SVG Export Plug-In . SVG Version: 6.00 Build 0)  -->
<!DOCTYPE svg PUBLIC "-//W3C//DTD SVG 1.1//EN" "http://www.w3.org/Graphics/SVG/1.1/DTD/svg11.dtd">
<svg version="1.1" id="Capa_1" xmlns="http://www.w3.org/2000/svg" xmlns:xlink="http://www.w3.org/1999/xlink" x="0px" y="0px"
	 viewBox="0 0 48 48" enable-background="new 0 0 48 48" xml:space="preserve">
<g id="preview_4_">
	<g>
		<path fill="#E62535" d="M17.4,1c7.3,0,14,4.5,16.5,11.8c3.2,9.1-1.7,19.1-10.8,22.3c-1.9,0.6-3.8,1-5.7,1c-7.3,0-14-4.6-16.5-11.8
			C-2.2,15.1,2.6,5.1,11.7,2C13.6,1.3,15.5,1,17.4,1 M17.4,5.7c-1.4,0-2.8,0.2-4.2,0.7l0,0C10,7.6,7.4,9.9,6,12.9
			c-1.5,3.1-1.7,6.5-0.6,9.8c1.8,5.1,6.6,8.6,12.1,8.6c1.4,0,2.8-0.2,4.2-0.7c3.2-1.1,5.8-3.4,7.3-6.5c1.5-3.1,1.7-6.5,0.6-9.8
			C27.7,9.2,22.8,5.7,17.4,5.7L17.4,5.7z"/>
	</g>
	<path fill="#E62535" d="M43.3,46.4c1.2,1,3,0.9,4-0.3l0,0c1-1.2,0.9-3-0.3-4L35.1,32c-1.2-1-3-0.9-4,0.3l0,0c-1,1.2-0.9,3,0.3,4
		L43.3,46.4z"/>
</g>
</svg>
